<mxfile host="app.diagrams.net" modified="2023-04-10T06:53:16.532Z" agent="Mozilla/5.0 (Windows NT 10.0; Win64; x64) AppleWebKit/537.36 (KHTML, like Gecko) Chrome/109.0.0.0 Safari/537.36" version="21.1.5" etag="4mofMMQTZ6ELsFd0oHPO" type="github">
  <diagram name="Page-1" id="6-QPMzgGGsWPTE16h2YF">
    <mxGraphModel>
      <root>
        <mxCell id="0" />
        <mxCell id="1" parent="0" />
      </root>
    </mxGraphModel>
  </diagram>
</mxfile>
